<?xml version="1.0" encoding="UTF-8" standalone="no"?>
<!DOCTYPE svg PUBLIC "-//W3C//DTD SVG 1.1//EN" "http://www.w3.org/Graphics/SVG/1.1/DTD/svg11.dtd">
<svg width="100%" height="100%" viewBox="0 0 456 500" version="1.1" xmlns="http://www.w3.org/2000/svg" xmlns:xlink="http://www.w3.org/1999/xlink" xml:space="preserve" xmlns:serif="http://www.serif.com/" style="fill-rule:evenodd;clip-rule:evenodd;stroke-linejoin:round;stroke-miterlimit:2;">
    <g transform="matrix(1,0,0,1,-997.564903,-208.8)">
        <g transform="matrix(1.013952,0,0,1.013952,-13.917657,-2.913173)">
            <path d="M1429.87,648.06L1429.87,446.78C1434.11,446.52 1437.25,446.69 1442.25,446.65C1444.23,446.61 1445.13,446.4 1447.26,446.71L1447.22,665.65L1229.92,665.71C1229.59,659.63 1229.7,655.2 1229.64,648.25L1422.96,648.22" style="fill-rule:nonzero;"/>
        </g>
        <g transform="matrix(1.013952,0,0,1.013952,-13.917657,-2.913173)">
            <path d="M1429.86,421.69L1429.88,229.75C1429.88,227.9 1429.95,229.17 1429.86,226.55L1229.67,226.53C1229.69,219.46 1229.63,216.65 1229.76,208.8L1447.23,208.87L1447.29,424.38L1429.95,424.57C1429.66,423.14 1429.87,423.82 1429.87,421.68L1429.86,421.69Z" style="fill-rule:nonzero;"/>
        </g>
        <g transform="matrix(1.013952,0,0,1.013952,-13.917657,-2.913173)">
            <path d="M1015.04,446.27L1015.04,645.6C1015.04,647.22 1015.03,645.34 1015.04,648.24L1208.08,648.24L1207.86,665.71L999.18,665.71C998.51,665.71 998.52,665.73 997.54,665.68L997.65,662.27L997.65,450.87C997.65,449.48 997.6,448.68 997.58,446.19" style="fill-rule:nonzero;"/>
        </g>
        <g transform="matrix(1.013952,0,0,1.013952,-13.917657,-2.913173)">
            <path d="M1015.05,228.94L1015.05,420.88C1015.05,422.68 1015.13,422.51 1015.04,424.58L997.69,424.61L997.69,208.84L1207.82,208.84L1208.01,226.53L1015.01,226.4C1015.08,228.52 1015.05,227.11 1015.05,228.95L1015.05,228.94Z" style="fill-rule:nonzero;"/>
        </g>
        <g transform="matrix(1.013952,0,0,1.013952,-13.917657,-2.913173)">
            <path d="M1359.38,342.6C1359.06,343.85 1358.39,345.78 1356.95,347.76C1356.73,348.06 1355.73,349.4 1354.11,350.7C1350.62,353.5 1346.6,354.2 1344.57,354.41L1328.64,354.68L1325.43,354.73C1325.6,353.5 1325.43,353.21 1325.43,352.54L1325.43,259.8C1328.2,259.77 1326.88,259.65 1327.86,259.66L1344.03,259.85C1350.17,259.92 1355.93,264.69 1358.1,270.32C1358.89,272.37 1359.97,275.22 1359.97,277.32L1360.03,337.35C1359.81,339.09 1359.6,340.84 1359.38,342.58L1359.38,342.6ZM1349.37,330.73L1349.34,283.84C1349.34,280.37 1348.44,276.38 1345.72,274.19C1343.37,272.3 1340.97,272.42 1336.55,272.96L1336.58,342.53C1340.95,342.81 1342.54,342.18 1345.22,340.44C1347.96,338.66 1349.37,334.59 1349.37,330.72L1349.37,330.73Z" style="fill-rule:nonzero;"/>
        </g>
        <g transform="matrix(1.013952,0,0,1.013952,-13.917657,-2.913173)">
            <path d="M1210.4,611.63L1199.98,611.54C1199.89,607.04 1199.85,608 1199.85,606.06L1199.88,521.03C1199.88,519.77 1200.14,519.12 1199.9,516.75C1201.27,516.52 1208.66,516.85 1210.42,516.75L1210.55,556.45L1224.66,556.43L1224.73,516.58C1228.66,516.41 1231.64,516.32 1235.69,516.58L1235.66,605.41L1235.58,611.56C1233.67,611.73 1233.22,611.7 1232.17,611.68L1224.72,611.49L1224.64,570.11L1210.53,570.09" style="fill-rule:nonzero;"/>
        </g>
        <g transform="matrix(1.013952,0,0,1.013952,-13.917657,-2.913173)">
            <path d="M1201.81,388.43L1220.99,388.43C1223.32,388.43 1226.99,390.08 1228.91,391.62C1234.69,396.24 1235.98,403.83 1235.93,410.93L1235.89,417.86L1235.71,466.82C1235.28,469.9 1234.71,472.77 1233.77,474.53C1230.54,480.57 1225.63,482.64 1219.42,482.94C1217.25,483.05 1204.89,483.15 1201.43,483.19M1223.13,468.23C1224.51,467.32 1225.13,463.62 1225.13,460.88L1225.13,410.67C1225.12,404.71 1221.13,400.71 1215.31,400.89C1214.61,400.91 1213.07,400.88 1212.49,401.08C1212.3,402.1 1212.35,402.98 1212.35,403.59L1212.35,467.28C1212.35,467.86 1212.25,469.79 1212.35,470.51C1213.37,470.51 1220.33,471.76 1223.14,468.23L1223.13,468.23Z" style="fill-rule:nonzero;"/>
        </g>
        <g transform="matrix(1.013952,0,0,1.013952,-13.917657,-2.913173)">
            <path d="M1091.49,516.3L1104.55,516.44C1105.66,521.37 1106.19,525.43 1107.03,530.44L1109.72,551.46L1111.77,565.09L1111.74,564.92L1113.7,580.53L1114.96,590.57L1116.68,603.24L1117.7,611.56C1114.03,611.54 1110.9,611.59 1107.22,611.69C1106.96,609.48 1106.68,608.37 1106.53,607.67C1105.85,604.44 1104.88,594.03 1104.15,589.81L1091.44,589.89L1090.13,600.59C1089.75,603.65 1089.39,608.63 1088.84,611.69C1084.88,611.79 1085.65,611.63 1084.66,611.59L1078.27,611.33M1093.31,577.25L1102.89,577.13L1102.07,570.03L1100.2,555.02L1097.96,538.99C1096.65,546.84 1096.65,548.13 1096.32,550.45" style="fill-rule:nonzero;"/>
        </g>
        <g transform="matrix(1.013952,0,0,1.013952,-13.917657,-2.913173)">
            <path d="M1228.42,313.23L1211.71,313.17C1211.71,316.69 1211.66,315.67 1211.66,316.75L1211.64,335.74C1211.64,337.73 1211.66,339.68 1211.72,341.83L1232.54,342.03L1232.67,354.47L1201.13,354.66L1201.06,263.07L1201.08,259.81C1201.93,259.81 1202.03,259.73 1202.52,259.73L1230.21,259.7C1231.34,259.7 1231.12,259.75 1232.37,259.73L1232.5,272.85L1211.76,273.01C1211.65,276.67 1211.65,275.22 1211.65,276.1L1211.65,296.73C1211.65,297.57 1211.57,297.69 1211.64,299.76L1228.62,300.16" style="fill-rule:nonzero;"/>
        </g>
        <g transform="matrix(1.013952,0,0,1.013952,-13.917657,-2.913173)">
            <path d="M1102.67,335.93C1102.66,341.82 1100.88,347.1 1097.32,351.47C1093.29,356.42 1084.99,355.61 1078.29,355.61C1078.12,352.21 1078.09,353.16 1078.16,349.3L1077.97,343.03C1079.57,343.03 1084.99,343.41 1088.39,341.75C1091.12,339.45 1091.69,335.92 1091.69,332.47L1091.69,259.6L1102.84,259.52" style="fill-rule:nonzero;"/>
        </g>
        <g transform="matrix(1.013952,0,0,1.013952,-13.917657,-2.913173)">
            <path d="M1336.73,599.04L1336.68,607.88C1336.68,608.22 1336.66,609.09 1336.71,609.76L1333.68,608.25L1323.45,602.04C1320.24,599.7 1317.37,597.65 1314.37,594.77C1309.56,589.92 1305.42,585.02 1302.1,578.48C1297.72,568.01 1296.69,563.18 1295.43,551.9C1294.81,546.34 1294.62,540.69 1294.87,535.13C1295.11,529.81 1294.92,525.38 1295.81,518.81C1297.85,517.93 1298.62,517.89 1300.62,517.19C1304.06,516.19 1307.74,515.24 1311.66,514.38C1316.5,513.33 1321.09,512.55 1325.37,511.99C1327.17,511.79 1328.61,511.6 1330.78,511.51C1333.01,511.19 1335.12,511.22 1336.94,511.22L1337.04,518.82C1332.54,519.14 1327.2,520.01 1322.92,520.75C1319.66,521.26 1316.23,521.89 1312.66,522.68C1309.7,523.33 1306.87,524.04 1304.18,524.78C1304.12,525.08 1304.06,525.53 1304.04,526.15C1304.04,526.29 1304.06,526.31 1303.93,527.89C1303.66,544.6 1302.17,565.01 1313.02,579.24C1314.96,581.79 1317.86,586.16 1323.16,590.21C1326.33,592.63 1329.11,594.61 1329.77,595.03C1331.29,595.98 1332.63,596.74 1333.7,597.3" style="fill-rule:nonzero;"/>
        </g>
        <g transform="matrix(1.013952,0,0,1.013952,-13.917657,-2.913173)">
            <rect x="1334.22" y="388.37" width="11.72" height="94.84"/>
        </g>
        <g transform="matrix(1.013952,0,0,1.013952,-13.917657,-2.913173)">
            <rect x="1089.96" y="388.37" width="11.68" height="94.82"/>
        </g>
        <g transform="matrix(1.013952,0,0,1.013952,-13.917657,-2.913173)">
            <path d="M1319.68,545.38L1333.83,545.12C1333.85,539.47 1333.89,536.15 1333.97,530.79L1343.25,530.79L1343.42,543.51C1343.43,544.33 1343.42,544.32 1343.42,545.28L1357.88,545.47L1357.99,556.36C1355.84,556.32 1354.55,556.39 1352.75,556.36L1346.18,556.25C1345.39,556.24 1344.22,556.21 1343.36,556.3L1343.31,582.25L1333.61,582.25L1333.53,556.28C1329.72,556.2 1323.42,556.33 1319.76,556.28" style="fill-rule:nonzero;"/>
        </g>
        <g transform="matrix(1.013952,0,0,1.013952,-13.917657,-2.913173)">
            <path d="M1343.26,530.79L1343.43,543.51" style="fill:none;fill-rule:nonzero;"/>
        </g>
    </g>
    <g transform="matrix(1.013952,0,0,1.013952,-1011.48256,-211.713173)">
        <path d="M1340.2,599.04L1340.25,607.88C1340.25,608.22 1340.27,609.09 1340.22,609.76L1343.25,608.25L1353.48,602.04C1356.69,599.7 1359.56,597.65 1362.56,594.77C1367.37,589.92 1371.51,585.02 1374.83,578.48C1379.21,568.01 1380.24,563.18 1381.5,551.9C1382.12,546.34 1382.31,540.69 1382.06,535.13C1381.82,529.81 1382.01,525.38 1381.12,518.81C1379.08,517.93 1378.31,517.89 1376.31,517.19C1372.87,516.19 1369.19,515.24 1365.27,514.38C1360.43,513.33 1355.84,512.55 1351.56,511.99C1349.76,511.79 1348.32,511.6 1346.15,511.51C1344.08,511.42 1341.91,511.22 1340.09,511.22L1340.06,518.91C1344.56,519.23 1349.74,520.01 1354.02,520.75C1357.28,521.26 1360.71,521.89 1364.28,522.68C1367.24,523.33 1370.07,524.04 1372.76,524.78C1372.82,525.08 1372.88,525.53 1372.9,526.15C1372.9,526.29 1372.88,526.31 1373.01,527.89C1373.28,544.6 1374.77,565.01 1363.92,579.24C1361.98,581.79 1359.08,586.16 1353.78,590.21C1350.61,592.63 1347.83,594.61 1347.17,595.03C1345.65,595.98 1344.31,596.74 1343.24,597.3" style="fill-rule:nonzero;"/>
    </g>
    <g transform="matrix(1,0,0,1,-997.564903,-208.8)">
        <g transform="matrix(1.013952,0,0,1.013952,-13.917657,-2.913173)">
            <path d="M1000.16,674.96L1004.36,674.96L1004.36,697.8L1011.25,697.8L1011.25,701.61L1000.16,701.61L1000.16,674.96Z" style="fill-rule:nonzero;"/>
            <path d="M1018.15,695.49C1018.15,696.45 1018.34,697.12 1018.74,697.51C1019.13,697.91 1019.65,698.1 1020.3,698.1C1020.95,698.1 1021.49,697.91 1021.89,697.51C1022.28,697.12 1022.48,696.45 1022.48,695.49L1022.48,681.1C1022.48,680.13 1022.28,679.45 1021.89,679.05C1021.49,678.66 1020.97,678.46 1020.3,678.46C1019.63,678.46 1019.13,678.66 1018.74,679.05C1018.34,679.45 1018.15,680.13 1018.15,681.1L1018.15,695.49ZM1013.95,681.36C1013.95,679.21 1014.49,677.56 1015.59,676.39C1016.68,675.23 1018.25,674.65 1020.3,674.65C1022.35,674.65 1023.94,675.23 1025.04,676.39C1026.13,677.55 1026.68,679.21 1026.68,681.36L1026.68,695.21C1026.68,697.38 1026.13,699.04 1025.04,700.2C1023.95,701.35 1022.36,701.92 1020.3,701.92C1018.24,701.92 1016.68,701.35 1015.59,700.2C1014.5,699.04 1013.95,697.38 1013.95,695.21L1013.95,681.36Z" style="fill-rule:nonzero;"/>
            <path d="M1036.86,696.69L1040.06,674.95L1043.9,674.95L1039.8,701.6L1033.55,701.6L1029.43,674.95L1033.65,674.95L1036.85,696.69L1036.86,696.69Z" style="fill-rule:nonzero;"/>
            <path d="M1051.26,686.2L1057.02,686.2L1057.02,689.99L1051.26,689.99L1051.26,697.8L1058.51,697.8L1058.51,701.61L1047.07,701.61L1047.07,674.96L1058.51,674.96L1058.51,678.77L1051.26,678.77L1051.26,686.2Z" style="fill-rule:nonzero;"/>
            <path d="M1062.28,674.96L1068.91,674.96C1071.02,674.96 1072.6,675.52 1073.62,676.65C1074.64,677.76 1075.16,679.39 1075.16,681.54L1075.16,695.03C1075.16,697.18 1074.65,698.82 1073.62,699.95C1072.6,701.06 1071.02,701.61 1068.91,701.61L1062.28,701.61L1062.28,674.96ZM1066.48,678.77L1066.48,697.79L1068.84,697.79C1069.51,697.79 1070.02,697.6 1070.4,697.23C1070.79,696.86 1070.99,696.18 1070.99,695.21L1070.99,681.36C1070.99,680.39 1070.79,679.72 1070.4,679.34C1070.02,678.97 1069.5,678.78 1068.84,678.78L1066.48,678.78L1066.48,678.77Z" style="fill-rule:nonzero;"/>
            <path d="M1092.48,674.96C1094.66,674.96 1096.24,675.47 1097.22,676.5C1098.21,677.51 1098.7,679.05 1098.7,681.11L1098.7,682.06C1098.7,683.43 1098.48,684.56 1098.03,685.44C1097.6,686.33 1096.92,686.99 1095.98,687.41C1097.12,687.86 1097.93,688.56 1098.39,689.53C1098.86,690.5 1099.11,691.7 1099.11,693.11L1099.11,695.29C1099.11,697.36 1098.57,698.93 1097.5,700C1096.44,701.08 1094.86,701.61 1092.76,701.61L1086.15,701.61L1086.15,674.96L1092.48,674.96ZM1090.35,689.63L1090.35,697.8L1092.76,697.8C1093.46,697.8 1093.99,697.61 1094.35,697.24C1094.72,696.87 1094.91,696.18 1094.91,695.19L1094.91,692.86C1094.91,691.62 1094.69,690.77 1094.27,690.33C1093.86,689.87 1093.18,689.64 1092.22,689.64L1090.35,689.64L1090.35,689.63ZM1090.35,678.77L1090.35,685.81L1091.99,685.81C1092.77,685.81 1093.39,685.61 1093.83,685.2C1094.27,684.79 1094.5,684.06 1094.5,683L1094.5,681.52C1094.5,680.55 1094.33,679.85 1093.99,679.42C1093.64,679 1093.11,678.78 1092.38,678.78L1090.36,678.78L1090.35,678.77Z" style="fill-rule:nonzero;"/>
            <path d="M1106.2,692.78L1100.9,674.96L1105.28,674.96L1108.48,687.1L1111.68,674.96L1115.67,674.96L1110.37,692.78L1110.37,701.61L1106.2,701.61L1106.2,692.78Z" style="fill-rule:nonzero;"/>
            <path d="M1131.96,686.76L1137.82,686.76L1137.82,695.21C1137.82,697.38 1137.29,699.04 1136.23,700.2C1135.17,701.35 1133.62,701.92 1131.57,701.92C1129.52,701.92 1127.97,701.35 1126.91,700.2C1125.85,699.04 1125.32,697.38 1125.32,695.21L1125.32,681.36C1125.32,679.21 1125.84,677.56 1126.91,676.39C1127.97,675.23 1129.52,674.65 1131.57,674.65C1133.62,674.65 1135.17,675.23 1136.23,676.39C1137.29,677.55 1137.82,679.21 1137.82,681.36L1137.82,683.95L1133.85,683.95L1133.85,681.11C1133.85,680.14 1133.65,679.46 1133.26,679.06C1132.86,678.67 1132.34,678.47 1131.67,678.47C1131,678.47 1130.5,678.67 1130.11,679.06C1129.71,679.46 1129.52,680.14 1129.52,681.11L1129.52,695.5C1129.52,696.46 1129.71,697.13 1130.11,697.52C1130.5,697.9 1131.02,698.08 1131.67,698.08C1132.32,698.08 1132.86,697.89 1133.26,697.52C1133.65,697.13 1133.85,696.46 1133.85,695.5L1133.85,690.58L1131.96,690.58L1131.96,686.76Z" style="fill-rule:nonzero;"/>
            <path d="M1145.59,695.49C1145.59,696.45 1145.78,697.12 1146.18,697.51C1146.57,697.91 1147.09,698.1 1147.74,698.1C1148.39,698.1 1148.93,697.91 1149.33,697.51C1149.72,697.12 1149.92,696.45 1149.92,695.49L1149.92,681.1C1149.92,680.13 1149.72,679.45 1149.33,679.05C1148.93,678.66 1148.41,678.46 1147.74,678.46C1147.07,678.46 1146.57,678.66 1146.18,679.05C1145.78,679.45 1145.59,680.13 1145.59,681.1L1145.59,695.49ZM1141.4,681.36C1141.4,679.21 1141.94,677.56 1143.04,676.39C1144.13,675.23 1145.7,674.65 1147.75,674.65C1149.8,674.65 1151.39,675.23 1152.49,676.39C1153.58,677.55 1154.13,679.21 1154.13,681.36L1154.13,695.21C1154.13,697.38 1153.58,699.04 1152.49,700.2C1151.4,701.35 1149.81,701.92 1147.75,701.92C1145.69,701.92 1144.13,701.35 1143.04,700.2C1141.95,699.04 1141.4,697.38 1141.4,695.21L1141.4,681.36Z" style="fill-rule:nonzero;"/>
            <path d="M1158.02,674.96L1164.65,674.96C1166.76,674.96 1168.34,675.52 1169.36,676.65C1170.38,677.76 1170.9,679.39 1170.9,681.54L1170.9,695.03C1170.9,697.18 1170.39,698.82 1169.36,699.95C1168.34,701.06 1166.76,701.61 1164.65,701.61L1158.02,701.61L1158.02,674.96ZM1162.22,678.77L1162.22,697.79L1164.58,697.79C1165.25,697.79 1165.76,697.6 1166.14,697.23C1166.53,696.86 1166.73,696.18 1166.73,695.21L1166.73,681.36C1166.73,680.39 1166.53,679.72 1166.14,679.34C1165.76,678.97 1165.24,678.78 1164.58,678.78L1162.22,678.78L1162.22,678.77Z" style="fill-rule:nonzero;"/>
        </g>
    </g>
</svg>
