<?xml version="1.0" encoding="UTF-8" standalone="no"?>
<svg
   id="Layer_1"
   version="1.1"
   viewBox="0 0 449.75 456.91394"
   sodipodi:docname="jedediah_logo.svg"
   inkscape:version="1.4.2 (ebf0e940, 2025-05-08)"
   width="449.75"
   height="456.91394"
   xmlns:inkscape="http://www.inkscape.org/namespaces/inkscape"
   xmlns:sodipodi="http://sodipodi.sourceforge.net/DTD/sodipodi-0.dtd"
   xmlns="http://www.w3.org/2000/svg"
   xmlns:svg="http://www.w3.org/2000/svg">
  <sodipodi:namedview
     id="namedview26"
     pagecolor="#ffffff"
     bordercolor="#000000"
     borderopacity="0.25"
     inkscape:showpageshadow="2"
     inkscape:pageopacity="0.0"
     inkscape:pagecheckerboard="0"
     inkscape:deskcolor="#d1d1d1"
     inkscape:zoom="0.46789585"
     inkscape:cx="366.53456"
     inkscape:cy="241.50674"
     inkscape:window-width="1416"
     inkscape:window-height="889"
     inkscape:window-x="0"
     inkscape:window-y="33"
     inkscape:window-maximized="0"
     inkscape:current-layer="Layer_1" />
  <!-- Generator: Adobe Illustrator 30.2.1, SVG Export Plug-In . SVG Version: 2.1.1 Build 1)  -->
  <defs
     id="defs1">
    <style
       id="style1">
      .st0 {
        fill: none;
      }

      .st1 {
        clip-path: url(#clippath);
      }
    </style>
    <clipPath
       id="clippath">
      <rect
         class="st0"
         x="997.54999"
         y="671.95001"
         width="178.60001"
         height="40.959999"
         id="rect1" />
    </clipPath>
  </defs>
  <g
     id="g14"
     transform="translate(-997.54,-208.8)">
    <path
       d="M 1429.87,648.06 V 446.78 c 4.24,-0.26 7.38,-0.09 12.38,-0.13 1.98,-0.04 2.88,-0.25 5.01,0.06 l -0.04,218.94 -217.3,0.06 c -0.33,-6.08 -0.22,-10.51 -0.28,-17.46 l 193.32,-0.03"
       id="path1" />
    <path
       d="m 1429.86,421.69 0.02,-191.94 c 0,-1.85 0.07,-0.58 -0.02,-3.2 l -200.19,-0.02 c 0.02,-7.07 -0.04,-9.88 0.09,-17.73 l 217.47,0.07 0.06,215.51 -17.34,0.19 c -0.29,-1.43 -0.08,-0.75 -0.08,-2.89 z"
       id="path2" />
    <path
       d="M 1015.04,446.27 V 645.6 c 0,1.62 -0.01,-0.26 0,2.64 h 193.04 c 0,0 -0.22,17.47 -0.22,17.47 H 999.18 c -0.67,0 -0.66,0.02 -1.64,-0.03 l 0.11,-3.41 v -211.4 c 0,-1.39 -0.05,-2.19 -0.07,-4.68"
       id="path3" />
    <path
       d="m 1015.05,228.94 v 191.94 c 0,1.8 0.08,1.63 -0.01,3.7 l -17.35,0.03 V 208.84 c 0,0 210.13,0 210.13,0 l 0.19,17.69 -193,-0.13 c 0.07,2.12 0.04,0.71 0.04,2.55 z"
       id="path4" />
    <path
       d="m 1359.38,342.6 c -0.32,1.25 -0.99,3.18 -2.43,5.16 -0.22,0.3 -1.22,1.64 -2.84,2.94 -3.49,2.8 -7.51,3.5 -9.54,3.71 l -15.93,0.27 -3.21,0.05 c 0.17,-1.23 0,-1.52 0,-2.19 V 259.8 c 2.77,-0.03 1.45,-0.15 2.43,-0.14 l 16.17,0.19 c 6.14,0.07 11.9,4.84 14.07,10.47 0.79,2.05 1.87,4.9 1.87,7 l 0.06,60.03 c -0.22,1.74 -0.43,3.49 -0.65,5.23 z m -10.01,-11.87 -0.03,-46.89 c 0,-3.47 -0.9,-7.46 -3.62,-9.65 -2.35,-1.89 -4.75,-1.77 -9.17,-1.23 l 0.03,69.57 c 4.37,0.28 5.96,-0.35 8.64,-2.09 2.74,-1.78 4.15,-5.85 4.15,-9.72 z"
       id="path5" />
    <path
       d="m 1210.4,611.63 -10.42,-0.09 c -0.09,-4.5 -0.13,-3.54 -0.13,-5.48 l 0.03,-85.03 c 0,-1.26 0.26,-1.91 0.02,-4.28 1.37,-0.23 8.76,0.1 10.52,0 l 0.13,39.7 14.11,-0.02 0.07,-39.85 c 3.93,-0.17 6.91,-0.26 10.96,0 l -0.03,88.83 -0.08,6.15 c -1.91,0.17 -2.36,0.14 -3.41,0.12 l -7.45,-0.19 -0.08,-41.38 -14.11,-0.02"
       id="path6" />
    <path
       d="m 1201.81,388.43 h 19.18 c 2.33,0 6,1.65 7.92,3.19 5.78,4.62 7.07,12.21 7.02,19.31 l -0.04,6.93 -0.18,48.96 c -0.43,3.08 -1,5.95 -1.94,7.71 -3.23,6.04 -8.14,8.11 -14.35,8.41 -2.17,0.11 -14.53,0.21 -17.99,0.25 m 21.7,-14.96 c 1.38,-0.91 2,-4.61 2,-7.35 v -50.21 c -0.01,-5.96 -4,-9.96 -9.82,-9.78 -0.7,0.02 -2.24,-0.01 -2.82,0.19 -0.19,1.02 -0.14,1.9 -0.14,2.51 v 63.69 c 0,0.58 -0.1,2.51 0,3.23 1.02,0 7.98,1.25 10.79,-2.28 z"
       id="path7" />
    <path
       d="m 1091.49,516.3 13.06,0.14 c 1.11,4.93 1.64,8.99 2.48,14 l 2.69,21.02 2.05,13.63 -0.03,-0.17 1.96,15.61 1.26,10.04 1.72,12.67 1.02,8.32 c -3.67,-0.02 -6.8,0.03 -10.48,0.13 -0.26,-2.21 -0.54,-3.32 -0.69,-4.02 -0.68,-3.23 -1.65,-13.64 -2.38,-17.86 l -12.71,0.08 -1.31,10.7 c -0.38,3.06 -0.74,8.04 -1.29,11.1 -3.96,0.1 -3.19,-0.06 -4.18,-0.1 l -6.39,-0.26 m 15.04,-34.08 9.58,-0.12 -0.82,-7.1 -1.87,-15.01 -2.24,-16.03 c -1.31,7.85 -1.31,9.14 -1.64,11.46"
       id="path8" />
    <path
       d="m 1228.42,313.23 -16.71,-0.06 c 0,3.52 -0.05,2.5 -0.05,3.58 l -0.02,18.99 c 0,1.99 0.02,3.94 0.08,6.09 l 20.82,0.2 0.13,12.44 -31.54,0.19 -0.07,-91.59 0.02,-3.26 c 0.85,0 0.95,-0.08 1.44,-0.08 l 27.69,-0.03 c 1.13,0 0.91,0.05 2.16,0.03 l 0.13,13.12 -20.74,0.16 c -0.11,3.66 -0.11,2.21 -0.11,3.09 v 20.63 c 0,0.84 -0.08,0.96 -0.01,3.03 l 16.98,0.4"
       id="path9" />
    <path
       d="m 1102.67,335.93 c -0.01,5.89 -1.79,11.17 -5.35,15.54 -4.03,4.95 -12.33,4.14 -19.03,4.14 -0.17,-3.4 -0.2,-2.45 -0.13,-6.31 l -0.19,-6.27 c 1.6,0 7.02,0.38 10.42,-1.28 2.73,-2.3 3.3,-5.83 3.3,-9.28 V 259.6 c 0,0 11.15,-0.08 11.15,-0.08"
       id="path10" />
    <path
       d="m 1336.73,599.04 -0.05,8.84 c 0,0.34 -0.02,1.21 0.03,1.88 l -3.03,-1.51 -10.23,-6.21 c -3.21,-2.34 -6.08,-4.39 -9.08,-7.27 -4.81,-4.85 -8.95,-9.75 -12.27,-16.29 -4.38,-10.47 -5.41,-15.3 -6.67,-26.58 -0.62,-5.56 -0.81,-11.21 -0.56,-16.77 0.24,-5.32 0.05,-9.75 0.94,-16.32 2.04,-0.88 2.81,-0.92 4.81,-1.62 3.44,-1 7.12,-1.95 11.04,-2.81 4.84,-1.05 9.43,-1.83 13.71,-2.39 1.8,-0.2 3.24,-0.39 5.41,-0.48 2.23,-0.32 4.34,-0.29 6.16,-0.29 l 0.1,7.6 c -4.5,0.32 -9.84,1.19 -14.12,1.93 -3.26,0.51 -6.69,1.14 -10.26,1.93 -2.96,0.65 -5.79,1.36 -8.48,2.1 -0.06,0.3 -0.12,0.75 -0.14,1.37 0,0.14 0.02,0.16 -0.11,1.74 -0.27,16.71 -1.76,37.12 9.09,51.35 1.94,2.55 4.84,6.92 10.14,10.97 3.17,2.42 5.95,4.4 6.61,4.82 1.52,0.95 2.86,1.71 3.93,2.27"
       id="path11" />
    <rect
       x="1334.22"
       y="388.37"
       width="11.72"
       height="94.839996"
       id="rect11" />
    <rect
       x="1089.96"
       y="388.37"
       width="11.68"
       height="94.82"
       id="rect12" />
    <path
       d="m 1319.68,545.38 14.15,-0.26 c 0.02,-5.65 0.06,-8.97 0.14,-14.33 3.23,0 5.53,0 9.28,0 l 0.17,12.72 c 0.01,0.82 0,0.81 0,1.77 l 14.46,0.19 0.11,10.89 c -2.15,-0.04 -3.44,0.03 -5.24,0 l -6.57,-0.11 c -0.79,-0.01 -1.96,-0.04 -2.82,0.05 l -0.05,25.95 h -9.7 c 0,0 -0.08,-25.97 -0.08,-25.97 -3.81,-0.08 -10.11,0.05 -13.77,0"
       id="path12" />
    <path
       d="m 1343.26,530.79 0.17,12.72"
       id="path13" />
    <path
       d="M 1333.98,530.79"
       id="path14" />
  </g>
  <path
     d="m 342.66,390.24 0.05,8.84 c 0,0.34 0.02,1.21 -0.03,1.88 l 3.03,-1.51 10.23,-6.21 c 3.20999,-2.34 6.07999,-4.39 9.07999,-7.27 4.81,-4.85 8.95,-9.75 12.27,-16.29 4.38,-10.47 5.41,-15.3 6.67,-26.58 0.62,-5.56 0.81,-11.21 0.56,-16.77 -0.24,-5.32 -0.05,-9.75 -0.94,-16.32 -2.04,-0.88 -2.81,-0.92 -4.81,-1.62 -3.44,-1 -7.12,-1.95 -11.04,-2.81 -4.84,-1.05 -9.42999,-1.83 -13.70999,-2.39 -1.8,-0.2 -3.24,-0.39 -5.41,-0.48 -2.07,-0.09 -4.24,-0.29 -6.06,-0.29 l -0.03,7.69 c 4.5,0.32 9.68,1.1 13.96,1.84 3.25999,0.51 6.68999,1.14 10.25999,1.93 2.96,0.65 5.79,1.36 8.48,2.1 0.06,0.3 0.12,0.75 0.14,1.37 0,0.14 -0.02,0.16 0.11,1.74 0.27,16.71 1.76,37.12 -9.09,51.35 -1.94,2.55 -4.84,6.92 -10.13999,10.97 -3.17,2.42 -5.95,4.4 -6.61,4.82 -1.52,0.95 -2.86,1.71 -3.93,2.27"
     id="path15" />
</svg>
